<?xml version="1.0" standalone="no"?>
<!DOCTYPE svg PUBLIC "-//W3C//DTD SVG 20010904//EN"
 "http://www.w3.org/TR/2001/REC-SVG-20010904/DTD/svg10.dtd">
<svg version="1.0" xmlns="http://www.w3.org/2000/svg"
 width="1024.000000pt" height="1024.000000pt" viewBox="0 0 1024.000000 1024.000000"
 preserveAspectRatio="xMidYMid meet">
<metadata>
Created by potrace 1.14, written by Peter Selinger 2001-2017
</metadata>
<g transform="translate(0.000000,1024.000000) scale(0.100000,-0.100000)"
fill="#000000" stroke="none">
<path d="M2215 10225 c-508 -67 -944 -255 -1320 -568 -94 -78 -283 -274 -356
-367 -217 -279 -372 -591 -459 -925 -39 -150 -49 -208 -67 -370 -10 -88 -11
-5643 -1 -5745 4 -41 9 -84 11 -95 5 -21 18 -113 19 -130 0 -5 4 -19 8 -31 5
-11 11 -36 14 -55 19 -119 105 -359 196 -544 76 -155 130 -245 231 -380 103
-139 105 -142 249 -285 411 -411 937 -661 1510 -718 96 -9 5651 -9 5745 0 83
9 225 33 315 54 36 9 72 17 80 19 8 2 53 15 100 30 310 99 608 263 866 477 40
33 232 224 279 278 117 133 261 349 344 520 50 100 120 268 126 302 2 9 8 25
13 35 29 54 95 372 110 528 10 102 9 5665 -1 5760 -5 44 -10 82 -12 85 -2 3
-6 23 -9 45 -13 86 -18 112 -33 170 -8 33 -17 67 -18 75 -64 274 -257 653
-466 915 -63 79 -277 299 -336 347 -140 111 -317 232 -399 273 -21 10 -46 24
-54 30 -8 6 -58 31 -110 55 -168 76 -399 153 -530 175 -19 3 -42 8 -50 10 -17
5 -50 10 -125 21 -27 3 -59 9 -70 13 -11 3 -1298 6 -2860 7 -2299 1 -2859 -1
-2940 -11z"/>
</g>
</svg>
